#!OML:ASF E:\emotionWalksFemale\Project 1\Capture day 1\Session 1\Female1.ASF
:FULLY-SPECIFIED
:DEGREES
1357
root 9.33815 15.5432 -37.2631 358.132 -77.6764 -352.218
lowerback 7.77865 -0.138738 1.05808
upperback -3.74328 0.00851744 1.21678
thorax -8.32504 -0.0240108 0.690757
lowerneck 0.0236803 8.44715 7.73403
upperneck -14.66 10.0379 -12.4283
head -3.25541 5.05847 -5.2582
rclavicle -4.10242e-014 9.54166e-015
rhumerus -27.9818 -0.874526 -69.8394
rradius 34.365
rwrist 14.2865
rhand -5.96569 -56.3008
rfingers 7.12502
rthumb 19.8653 -85.3055
lclavicle -4.10242e-014 9.54166e-015
lhumerus -34.3359 -2.89514 92.0199
lradius 37.2148
lwrist -14.9255
lhand -5.94354 -35.3527
lfingers 7.12502
lthumb 19.8866 -6.35013
rfemur -11.4935 19.7024 26.8466
rtibia 21.7552
rfoot -56.8949 -48.5175
rtoes 52.4198
lfemur -19.0923 2.32042 -19.1679
ltibia 40.2042
lfoot -19.7236 17.5195
ltoes -26.5755
1358
root 9.35385 15.5441 -37.2754 358.767 -76.6947 -352.743
lowerback 7.65726 -0.12585 1.04731
upperback -3.79003 0.0256107 1.26369
thorax -8.30479 -0.0140633 0.743659
lowerneck 0.0945248 8.79246 8.26505
upperneck -14.5121 10.4948 -13.0237
head -3.1062 5.29173 -5.51244
rclavicle 1.6027e-014 -6.36111e-015
rhumerus -27.964 -0.836463 -69.8884
rradius 34.4613
rwrist 14.0995
rhand -6.27464 -56.4763
rfingers 7.12502
rthumb 19.5683 -85.5115
lclavicle 1.6027e-014 -6.36111e-015
lhumerus -34.187 -2.78011 92.4543
lradius 36.5445
lwrist -15.0723
lhand -5.82692 -34.4125
lfingers 7.12502
lthumb 19.9987 -5.42163
rfemur -11.6953 19.1933 26.8408
rtibia 21.783
rfoot -57.5783 -48.3351
rtoes 52.9505
lfemur -18.7602 2.81993 -19.3487
ltibia 40.2782
lfoot -20.0362 17.6475
ltoes -26.4308
1359
root 9.37003 15.548 -37.286 359.579 -75.6254 -353.329
lowerback 7.41901 -0.181147 1.06213
upperback -3.86914 -0.048776 1.30638
thorax -8.25067 -0.0506081 0.790651
lowerneck 0.143959 9.18091 8.62446
upperneck -14.3334 11.0331 -13.3678
head -2.95871 5.56194 -5.65746
rclavicle -3.70982e-014 -1.74931e-014
rhumerus -27.864 -0.813455 -70.0446
rradius 34.4133
rwrist 14.2002
rhand -6.70836 -56.6733
rfingers 7.12502
rthumb 19.1513 -85.7504
lclavicle -3.70982e-014 -1.74931e-014
lhumerus -34.937 -5.25428 93.5909
lradius 36.5426
lwrist -12.0447
lhand -6.52562 -33.5724
lfingers 7.12502
lthumb 19.327 -4.5128
rfemur -11.9866 18.6681 26.8138
rtibia 21.6935
rfoot -58.2438 -48.1533
rtoes 53.5393
lfemur -18.6995 3.20027 -19.4903
ltibia 40.3047
lfoot -20.9826 17.5455
ltoes -21.5436
1360
root 9.38573 15.5481 -37.2982 359.937 -74.4938 -353.552
lowerback 7.32324 -0.3189 0.897805
upperback -3.92234 -0.251932 1.31834
thorax -8.25001 -0.140554 0.924696
lowerneck 0.201746 9.63602 9.18785
upperneck -14.2669 11.6561 -13.7795
head -2.81481 5.86703 -5.85415
rclavicle -5.46658e-015 -2.94201e-014
rhumerus -27.7413 -0.559647 -70.3992
rradius 34.3593
rwrist 14.1183
rhand -6.81838 -56.8177
rfingers 7.12502
rthumb 19.0455 -85.9052
lclavicle -5.46658e-015 -2.94201e-014
lhumerus -35.2848 -4.49021 93.5131
lradius 36.5391
lwrist -12.0466
lhand -6.32887 -34.8701
lfingers 7.12502
lthumb 19.5162 -5.82958
rfemur -12.1961 18.0839 26.7453
rtibia 21.7112
rfoot -58.9858 -47.7853
rtoes 54.3408
lfemur -18.5512 3.46812 -19.6962
ltibia 40.2932
lfoot -23.2091 16.6421
ltoes -4.37339
1361
root 9.39814 15.5489 -37.3152 359.89 -73.6215 -353.596
lowerback 7.46839 -0.362343 0.552319
upperback -3.89518 -0.341671 1.35842
thorax -8.30228 -0.163301 1.17541
lowerneck 0.327554 10.0312 9.56393
upperneck -14.4368 12.1858 -14.0615
head -2.77934 6.12975 -5.99695
rclavicle 4.99446e-015 1.11319e-014
rhumerus -27.6263 -0.18633 -70.7933
rradius 34.3622
rwrist 13.8348
rhand -6.76674 -56.798
rfingers 7.12502
rthumb 19.0951 -85.8806
lclavicle 4.99446e-015 1.11319e-014
lhumerus -35.598 -5.32073 93.9793
lradius 36.7725
lwrist -11.1207
lhand -5.98632 -34.3829
lfingers 7.12502
lthumb 19.8455 -5.37607
rfemur -12.0989 18.1377 26.6936
rtibia 21.6578
rfoot -60.3449 -47.6447
rtoes 55.2461
lfemur -18.0669 3.97294 -19.8923
ltibia 40.2906
lfoot -23.4707 17.0925
ltoes -3.67055
1362
root 9.41078 15.5488 -37.331 360.329 -72.9551 -354.277
lowerback 7.71291 -0.327255 0.456956
upperback -3.80212 -0.296387 1.42403
thorax -8.34472 -0.133078 1.29336
lowerneck -0.0286412 10.5848 9.84796
upperneck -14.0325 12.9634 -14.0764
head -2.49239 6.49457 -5.97867
rclavicle 2.36802e-014 0
rhumerus -27.4426 0.0402107 -71.2249
rradius 34.2679
rwrist 13.5741
rhand -7.16842 -56.8171
rfingers 7.12502
rthumb 18.7088 -85.9375
lclavicle 2.36802e-014 0
lhumerus -35.9544 -4.71308 93.8809
lradius 36.9611
lwrist -11.9508
lhand -5.03477 -34.6255
lfingers 7.12502
lthumb 20.76 -5.71595
rfemur -11.8555 18.6141 26.9055
rtibia 21.6048
rfoot -63.2593 -46.7412
rtoes 57.0396
lfemur -17.438 4.70618 -19.8648
ltibia 40.3283
lfoot -23.5007 17.5804
ltoes -4.4302
1363
root 9.42571 15.5428 -37.3403 360.878 -72.173 -354.995
lowerback 7.80623 -0.250792 0.574895
upperback -3.75077 -0.175532 1.47482
thorax -8.34642 -0.078905 1.26314
lowerneck -0.0462627 10.8365 10.1811
upperneck -13.9002 13.3076 -14.3882
head -2.36073 6.66582 -6.10016
rclavicle 1.95554e-014 -4.77083e-015
rhumerus -27.3619 -0.326833 -71.2842
rradius 34.0934
rwrist 14.2057
rhand -7.9339 -57.1204
rfingers 7.12502
rthumb 17.9724 -86.31
lclavicle 1.95554e-014 -4.77083e-015
lhumerus -36.243 -4.88104 94.1153
lradius 36.9252
lwrist -11.8404
lhand -4.24736 -34.9673
lfingers 7.12502
lthumb 21.5164 -6.1424
rfemur -11.6465 18.2233 27.1893
rtibia 21.5129
rfoot -62.732 -47.1628
rtoes 56.9648
lfemur -16.916 5.39606 -19.8602
ltibia 40.3466
lfoot -23.3621 18.3511
ltoes -5.7527
